<svg xmlns="http://www.w3.org/2000/svg" width="20" height="20" viewBox="0 0 20 20">
  <metadata><?xpacket begin="﻿" id="W5M0MpCehiHzreSzNTczkc9d"?>
<x:xmpmeta xmlns:x="adobe:ns:meta/" x:xmptk="Adobe XMP Core 5.6-c140 79.160451, 2017/05/06-01:08:21        ">
   <rdf:RDF xmlns:rdf="http://www.w3.org/1999/02/22-rdf-syntax-ns#">
      <rdf:Description rdf:about=""/>
   </rdf:RDF>
</x:xmpmeta>
                                                                                                    
                                                                                                    
                                                                                                    
                                                                                                    
                                                                                                    
                                                                                                    
                                                                                                    
                                                                                                    
                                                                                                    
                                                                                                    
                                                                                                    
                                                                                                    
                                                                                                    
                                                                                                    
                                                                                                    
                                                                                                    
                                                                                                    
                                                                                                    
                                                                                                    
                                                                                                    
                           
<?xpacket end="w"?></metadata>
<defs>
    <style>
      .cls-1 {
        fill: #e6332a;
        fill-rule: evenodd;
      }
    </style>
  </defs>
  <g id="chevronright">
    <path class="cls-1" d="M4948.11,1395.77l6.21,6.21-6.21,6.22a0.467,0.467,0,0,0,.66.66l6.54-6.55a0.459,0.459,0,0,0,0-.66l-6.54-6.55a0.471,0.471,0,0,0-.66,0A0.483,0.483,0,0,0,4948.11,1395.77Zm6.54,0,6.21,6.21-6.21,6.22a0.467,0.467,0,1,0,.66.66l6.54-6.55a0.459,0.459,0,0,0,0-.66l-6.54-6.55a0.471,0.471,0,0,0-.66,0A0.483,0.483,0,0,0,4954.65,1395.77Z" transform="translate(-4945 -1392)"/>
  </g>
</svg>
