<svg xmlns="http://www.w3.org/2000/svg" width="34" height="33" viewBox="0 0 34 33">
  <metadata><?xpacket begin="﻿" id="W5M0MpCehiHzreSzNTczkc9d"?>
<x:xmpmeta xmlns:x="adobe:ns:meta/" x:xmptk="Adobe XMP Core 5.6-c140 79.160451, 2017/05/06-01:08:21        ">
   <rdf:RDF xmlns:rdf="http://www.w3.org/1999/02/22-rdf-syntax-ns#">
      <rdf:Description rdf:about=""/>
   </rdf:RDF>
</x:xmpmeta>
                                                                                                    
                                                                                                    
                                                                                                    
                                                                                                    
                                                                                                    
                                                                                                    
                                                                                                    
                                                                                                    
                                                                                                    
                                                                                                    
                                                                                                    
                                                                                                    
                                                                                                    
                                                                                                    
                                                                                                    
                                                                                                    
                                                                                                    
                                                                                                    
                                                                                                    
                                                                                                    
                           
<?xpacket end="w"?></metadata>
<defs>
    <style>
      .cls-1 {
        fill: #e6332a;
        fill-rule: evenodd;
      }
    </style>
  </defs>
  <g id="externallink">
    <path id="extlink" class="cls-1" d="M5018.8,1409.5a1.545,1.545,0,0,0-1.55,1.55v9.3a1.545,1.545,0,0,1-1.55,1.55h-17.05a1.551,1.551,0,0,1-1.55-1.55V1403.3a1.558,1.558,0,0,1,1.55-1.55h9.3a1.55,1.55,0,1,0,0-3.1h-9.3a4.66,4.66,0,0,0-4.65,4.65v17.05a4.66,4.66,0,0,0,4.65,4.65h17.05a4.66,4.66,0,0,0,4.65-4.65v-9.3A1.545,1.545,0,0,0,5018.8,1409.5Zm6.08-14.54a1.57,1.57,0,0,0-.84-0.84,1.518,1.518,0,0,0-.59-0.12h-9.3a1.55,1.55,0,1,0,0,3.1h5.56l-14.41,14.4a1.556,1.556,0,0,0,2.2,2.2l14.4-14.41v5.56a1.55,1.55,0,0,0,3.1,0v-9.3A1.518,1.518,0,0,0,5024.88,1394.96Z" transform="translate(-4992 -1393)"/>
  </g>
</svg>
