<svg xmlns="http://www.w3.org/2000/svg" width="20" height="20" viewBox="0 0 20 20">
  <metadata><?xpacket begin="﻿" id="W5M0MpCehiHzreSzNTczkc9d"?>
<x:xmpmeta xmlns:x="adobe:ns:meta/" x:xmptk="Adobe XMP Core 5.6-c140 79.160451, 2017/05/06-01:08:21        ">
   <rdf:RDF xmlns:rdf="http://www.w3.org/1999/02/22-rdf-syntax-ns#">
      <rdf:Description rdf:about=""/>
   </rdf:RDF>
</x:xmpmeta>
                                                                                                    
                                                                                                    
                                                                                                    
                                                                                                    
                                                                                                    
                                                                                                    
                                                                                                    
                                                                                                    
                                                                                                    
                                                                                                    
                                                                                                    
                                                                                                    
                                                                                                    
                                                                                                    
                                                                                                    
                                                                                                    
                                                                                                    
                                                                                                    
                                                                                                    
                                                                                                    
                           
<?xpacket end="w"?></metadata>
<defs>
    <style>
      .cls-1 {
        fill: #595959;
        fill-rule: evenodd;
      }
    </style>
  </defs>
  <g id="likedin">
    <path id="LINKEDIN" class="cls-1" d="M4939.6,1404.36v6.36h-3.69v-5.93c0-1.5-.53-2.51-1.86-2.51a2.023,2.023,0,0,0-1.9,1.35,2.651,2.651,0,0,0-.12.9v6.19h-3.69s0.05-10.05,0-11.09h3.69v1.57a0.052,0.052,0,0,0-.02.04h0.02v-0.04a3.674,3.674,0,0,1,3.32-1.83C4937.78,1399.37,4939.6,1400.95,4939.6,1404.36Zm-15.11-10.08a1.921,1.921,0,1,0-.05,3.83h0.02A1.921,1.921,0,1,0,4924.49,1394.28Zm-1.87,16.44h3.69v-11.09h-3.69v11.09Z" transform="translate(-4921 -1392)"/>
  </g>
</svg>
