<svg xmlns="http://www.w3.org/2000/svg" width="16" height="41" viewBox="0 0 16 41">
  <metadata><?xpacket begin="﻿" id="W5M0MpCehiHzreSzNTczkc9d"?>
<x:xmpmeta xmlns:x="adobe:ns:meta/" x:xmptk="Adobe XMP Core 5.6-c140 79.160451, 2017/05/06-01:08:21        ">
   <rdf:RDF xmlns:rdf="http://www.w3.org/1999/02/22-rdf-syntax-ns#">
      <rdf:Description rdf:about=""/>
   </rdf:RDF>
</x:xmpmeta>
                                                                                                    
                                                                                                    
                                                                                                    
                                                                                                    
                                                                                                    
                                                                                                    
                                                                                                    
                                                                                                    
                                                                                                    
                                                                                                    
                                                                                                    
                                                                                                    
                                                                                                    
                                                                                                    
                                                                                                    
                                                                                                    
                                                                                                    
                                                                                                    
                                                                                                    
                                                                                                    
                           
<?xpacket end="w"?></metadata>
<defs>
    <style>
      .cls-1 {
        fill: #e6332a;
        fill-rule: evenodd;
      }
    </style>
  </defs>
  <g id="ScrollDown">
    <path class="cls-1" d="M4865.94,1396.17a1.315,1.315,0,1,1-1.31,1.31A1.306,1.306,0,0,1,4865.94,1396.17Zm0-4.16a6.547,6.547,0,0,0-6.53,6.57v10.95a6.53,6.53,0,1,0,13.06,0v-10.95A6.553,6.553,0,0,0,4865.94,1392.01Zm5.66,17.52a5.66,5.66,0,1,1-11.32,0v-10.95a5.66,5.66,0,1,1,11.32,0v10.95Zm0.13,8.45-5.79,5.82-5.79-5.82a0.429,0.429,0,0,0-.61,0,0.441,0.441,0,0,0,0,.62l6.09,6.13a0.435,0.435,0,0,0,.62,0l6.09-6.13a0.441,0.441,0,0,0,0-.62A0.429,0.429,0,0,0,4871.73,1417.98Zm0,6.13-5.79,5.82-5.79-5.82a0.429,0.429,0,0,0-.61,0,0.441,0.441,0,0,0,0,.62l6.09,6.13a0.435,0.435,0,0,0,.62,0l6.09-6.13a0.441,0.441,0,0,0,0-.62A0.429,0.429,0,0,0,4871.73,1424.11Z" transform="translate(-4858 -1391)"/>
  </g>
</svg>
