<svg xmlns="http://www.w3.org/2000/svg" width="20" height="20" viewBox="0 0 20 20">
  <metadata><?xpacket begin="﻿" id="W5M0MpCehiHzreSzNTczkc9d"?>
<x:xmpmeta xmlns:x="adobe:ns:meta/" x:xmptk="Adobe XMP Core 5.6-c140 79.160451, 2017/05/06-01:08:21        ">
   <rdf:RDF xmlns:rdf="http://www.w3.org/1999/02/22-rdf-syntax-ns#">
      <rdf:Description rdf:about=""/>
   </rdf:RDF>
</x:xmpmeta>
                                                                                                    
                                                                                                    
                                                                                                    
                                                                                                    
                                                                                                    
                                                                                                    
                                                                                                    
                                                                                                    
                                                                                                    
                                                                                                    
                                                                                                    
                                                                                                    
                                                                                                    
                                                                                                    
                                                                                                    
                                                                                                    
                                                                                                    
                                                                                                    
                                                                                                    
                                                                                                    
                           
<?xpacket end="w"?></metadata>
<defs>
    <style>
      .cls-1 {
        fill: #595959;
        fill-rule: evenodd;
      }
    </style>
  </defs>
  <g id="twitter">
    <path id="TWITTER-2" data-name="TWITTER" class="cls-1" d="M4912.69,1395.99a8.011,8.011,0,0,1-2.29.63,4,4,0,0,0,1.75-2.2,7.7,7.7,0,0,1-2.52.96,3.983,3.983,0,0,0-6.88,2.72,4.53,4.53,0,0,0,.1.91,11.313,11.313,0,0,1-8.19-4.15,3.965,3.965,0,0,0,1.23,5.3,4.062,4.062,0,0,1-1.8-.49v0.04a3.972,3.972,0,0,0,3.19,3.9,4.031,4.031,0,0,1-1.05.14,3.808,3.808,0,0,1-.75-0.07,3.987,3.987,0,0,0,3.72,2.76,7.964,7.964,0,0,1-4.94,1.7,7.456,7.456,0,0,1-.95-0.06,11.305,11.305,0,0,0,17.41-9.52c0-.17-0.01-0.34-0.02-0.51A8.122,8.122,0,0,0,4912.69,1395.99Z" transform="translate(-4893 -1392)"/>
  </g>
</svg>
